<?xml version="1.0" encoding="utf-8"?>
<!-- Generator: Adobe Illustrator 19.2.0, SVG Export Plug-In . SVG Version: 6.00 Build 0)  -->
<svg version="1.1" id="Layer_2" xmlns="http://www.w3.org/2000/svg" xmlns:xlink="http://www.w3.org/1999/xlink" x="0px" y="0px"
   viewBox="0 0 200 200" style="enable-background:new 0 0 200 200;" xml:space="preserve">
<style type="text/css">
  .st0{fill:#00B0FF;}
  .st1{fill:#FFEA00;}
  .st2{clip-path:url(#SVGID_2_);}
  .st3{fill:#3D3939;}
  .st4{fill:#FFFFFF;}
  .st5{fill:#424242;}
  .st6{opacity:0.2;}
</style>
<g>
  <g class="st2">
    <path class="st1" d="M126.5,138.8c5.9-4.7,9.2-12,9-19.5c0-8-2.3-14.1-7-18.3c-4.7-4.2-11.3-7.4-19.8-9.5s-13.9-3.9-16.3-5.4
      c-2.2-1.3-3.6-3.7-3.5-6.2c-0.1-2.4,1-4.7,2.9-6.3c2.3-1.7,5.1-2.5,7.9-2.4c8.3,0,16.3,2.9,24.1,8.8l10.1-14.6
      c-4.6-3.9-9.9-6.8-15.6-8.7c-5.8-2-11.8-3-17.9-3.1c-9.1,0-16.8,2.3-22.8,6.9c-6.1,4.6-9.2,11.2-9.2,19.6c0,8.5,2.4,14.8,7.2,18.7
      s12.4,7.2,22.8,9.7c6.6,1.6,11,3.2,13.2,4.8c2.1,1.4,3.4,3.8,3.3,6.4c0.1,2.5-1.1,4.9-3.1,6.4c-2.1,1.6-5,2.4-8.6,2.4
      c-8.2,0-17.1-4.2-26.8-12.7l-11.9,14.6c11.3,10.5,24.1,15.7,38.3,15.7C112.6,146.3,120.5,143.8,126.5,138.8z"/>
  </g>
</g>
</svg>
