<?xml version="1.0" encoding="utf-8"?>
<!-- Generator: Adobe Illustrator 19.2.0, SVG Export Plug-In . SVG Version: 6.00 Build 0)  -->
<svg version="1.1" id="Layer_2" xmlns="http://www.w3.org/2000/svg" xmlns:xlink="http://www.w3.org/1999/xlink" x="0px" y="0px"
   viewBox="0 0 200 200" style="enable-background:new 0 0 200 200;" xml:space="preserve">
<style type="text/css">
  .st0{fill:#00B0FF;}
  .st1{fill:#FFEA00;}
  .st2{clip-path:url(#SVGID_2_);}
  .st3{fill:#3D3939;}
  .st4{fill:#FFFFFF;}
  .st5{fill:#424242;}
  .st6{opacity:0.2;}
</style>
<g>
  <path class="st0" d="M100,176.5c-42.2,0-76.5-34.3-76.5-76.5c0-42.2,34.3-76.5,76.5-76.5c42.2,0,76.5,34.3,76.5,76.5
    C176.5,142.1,142.1,176.5,100,176.5L100,176.5z"/>
  <path class="st1" d="M100,25.5c41.1,0,74.5,33.4,74.5,74.5c0,41.1-33.4,74.5-74.5,74.5c-41.1,0-74.5-33.4-74.5-74.5
    S58.9,25.5,100,25.5 M100,21.5c-43.3,0-78.5,35.2-78.5,78.5s35.2,78.5,78.5,78.5c21,0,40.7-8.2,55.5-23c14.8-14.8,23-34.5,23-55.5
    C178.5,56.7,143.3,21.5,100,21.5L100,21.5z"/>
</g>
<g>
  <defs>
    <path id="SVGID_1_" d="M100,174.5c-41.1,0-74.5-33.4-74.5-74.5S58.9,25.5,100,25.5s74.5,33.4,74.5,74.5
      C174.5,141.1,141.1,174.5,100,174.5z"/>
  </defs>
  <clipPath id="SVGID_2_">
    <use xlink:href="#SVGID_1_"  style="overflow:visible;"/>
  </clipPath>
  <g class="st2">
    <path class="st3" d="M72.2,184.1l76.1-92.2c18.1,28.8,36.2,57.5,54.3,86.3C159.1,180.1,115.7,182.1,72.2,184.1z"/>
    <polygon class="st4" points="117.9,128.7 134.1,141.8 148,130.6 166.2,143.8 174.5,133.6 148.3,91.9     "/>
  </g>
  <g class="st2">
    <polygon class="st5" points="-16.8,179.5 27,103.1 44.2,73.1 76.2,104.1 148.9,174.7    "/>
    <polygon class="st4" points="66.1,113 54,104.1 42.2,113 28.5,100.5 44.2,73.1 76.2,104.1     "/>
  </g>
  <g class="st2">
    <path class="st6" d="M133.9,65.5l-10.1,14.6c-7.8-5.9-15.8-8.8-24.1-8.8c-2.8-0.2-5.6,0.7-7.9,2.4c-1.9,1.5-3,3.8-2.9,6.3
      c0,2.6,1.3,4.9,3.5,6.2c2.3,1.5,7.8,3.3,16.3,5.4s15.1,5.2,19.8,9.5c4.7,4.2,7,10.3,7,18.3c0.2,7.6-3.1,14.8-9,19.5
      c-6,5-13.9,7.5-23.7,7.5c-14.2,0-26.9-5.2-38.3-15.7l96.4,96.4l67.2-67.2L133.9,65.5z"/>
    <path class="st1" d="M126.5,138.8c5.9-4.7,9.2-12,9-19.5c0-8-2.3-14.1-7-18.3c-4.7-4.2-11.3-7.4-19.8-9.5s-13.9-3.9-16.3-5.4
      c-2.2-1.3-3.6-3.7-3.5-6.2c-0.1-2.4,1-4.7,2.9-6.3c2.3-1.7,5.1-2.5,7.9-2.4c8.3,0,16.3,2.9,24.1,8.8l10.1-14.6
      c-4.6-3.9-9.9-6.8-15.6-8.7c-5.8-2-11.8-3-17.9-3.1c-9.1,0-16.8,2.3-22.8,6.9c-6.1,4.6-9.2,11.2-9.2,19.6c0,8.5,2.4,14.8,7.2,18.7
      s12.4,7.2,22.8,9.7c6.6,1.6,11,3.2,13.2,4.8c2.1,1.4,3.4,3.8,3.3,6.4c0.1,2.5-1.1,4.9-3.1,6.4c-2.1,1.6-5,2.4-8.6,2.4
      c-8.2,0-17.1-4.2-26.8-12.7l-11.9,14.6c11.3,10.5,24.1,15.7,38.3,15.7C112.6,146.3,120.5,143.8,126.5,138.8z"/>
  </g>
</g>
</svg>
