<?xml version="1.0" encoding="utf-8"?>
<!-- Generator: Adobe Illustrator 19.2.0, SVG Export Plug-In . SVG Version: 6.00 Build 0)  -->
<svg version="1.1" id="Layer_2" xmlns="http://www.w3.org/2000/svg" xmlns:xlink="http://www.w3.org/1999/xlink" x="0px" y="0px"
   viewBox="0 0 200 200" style="enable-background:new 0 0 200 200;" xml:space="preserve">
<style type="text/css">
  .st0{fill:#00B0FF;}
  .st1{fill:#FFEA00;}
  .st2{clip-path:url(#SVGID_2_);}
  .st3{fill:#3D3939;}
  .st4{fill:#FFFFFF;}
  .st5{fill:#424242;}
  .st6{opacity:0.2;}
</style>
<g>
  <path class="st0" d="M100,176.5c-42.2,0-76.5-34.3-76.5-76.5c0-42.2,34.3-76.5,76.5-76.5c42.2,0,76.5,34.3,76.5,76.5
    C176.5,142.1,142.1,176.5,100,176.5L100,176.5z"/>
  <path class="st1" d="M100,25.5c41.1,0,74.5,33.4,74.5,74.5c0,41.1-33.4,74.5-74.5,74.5c-41.1,0-74.5-33.4-74.5-74.5
    S58.9,25.5,100,25.5 M100,21.5c-43.3,0-78.5,35.2-78.5,78.5s35.2,78.5,78.5,78.5c21,0,40.7-8.2,55.5-23c14.8-14.8,23-34.5,23-55.5
    C178.5,56.7,143.3,21.5,100,21.5L100,21.5z"/>
</g>
<g>
  <defs>
    <path id="SVGID_1_" d="M100,174.5c-41.1,0-74.5-33.4-74.5-74.5S58.9,25.5,100,25.5s74.5,33.4,74.5,74.5
      C174.5,141.1,141.1,174.5,100,174.5z"/>
  </defs>
  <clipPath id="SVGID_2_">
    <use xlink:href="#SVGID_1_"  style="overflow:visible;"/>
  </clipPath>
  <g class="st2">
    <path class="st3" d="M72.2,184.1l76.1-92.2c18.1,28.8,36.2,57.5,54.3,86.3C159.1,180.1,115.7,182.1,72.2,184.1z"/>
    <polygon class="st4" points="117.9,128.7 134.1,141.8 148,130.6 166.2,143.8 174.5,133.6 148.3,91.9     "/>
  </g>
  <g class="st2">
    <polygon class="st5" points="-16.8,179.5 27,103.1 44.2,73.1 76.2,104.1 148.9,174.7    "/>
    <polygon class="st4" points="66.1,113 54,104.1 42.2,113 28.5,100.5 44.2,73.1 76.2,104.1     "/>
  </g>
</g>
</svg>
